<?xml version="1.0" encoding="utf-8"?>
<!-- Generator: Adobe Illustrator 24.0.0, SVG Export Plug-In . SVG Version: 6.00 Build 0)  -->
<svg version="1.1" id="Capa_1" xmlns="http://www.w3.org/2000/svg" xmlns:xlink="http://www.w3.org/1999/xlink" x="0px" y="0px"
	 viewBox="0 0 473.8 177.1" style="enable-background:new 0 0 473.8 177.1;" xml:space="preserve">
<style type="text/css">
	.st0{fill:#009AA2;}
	.st1{fill:#704087;}
	.st2{fill:#7A3C8E;}
</style>
<g>
	<g>
		<path class="st0" d="M45,55.8c-1.9-2.2-4.4-3.9-7.6-5.2c-3.2-1.3-6.8-2-10.9-2c-6,0-10.3,1.1-13.1,3.4c-2.7,2.3-4.1,5.3-4.1,9.2
			c0,2,0.4,3.7,1.1,5c0.7,1.3,1.9,2.4,3.4,3.4c1.5,1,3.5,1.8,5.9,2.5c2.4,0.7,5.2,1.4,8.4,2.1c3.6,0.8,6.9,1.6,9.8,2.6
			c2.9,1,5.4,2.1,7.4,3.6c2,1.4,3.6,3.2,4.7,5.2c1.1,2,1.6,4.6,1.6,7.6c0,3.1-0.6,5.8-1.8,8.1c-1.2,2.3-2.9,4.2-5.1,5.7
			c-2.2,1.5-4.7,2.7-7.7,3.4c-3,0.7-6.3,1.1-9.8,1.1c-10.5,0-19.5-3.3-27.2-9.8l3.3-5.4c1.2,1.3,2.7,2.5,4.3,3.6
			c1.7,1.1,3.6,2.1,5.6,3c2.1,0.9,4.3,1.5,6.6,2c2.4,0.5,4.8,0.7,7.4,0.7c5.4,0,9.6-1,12.6-2.9c3-1.9,4.5-4.9,4.5-8.8
			c0-2.1-0.4-3.9-1.3-5.3s-2.1-2.7-3.9-3.7c-1.7-1-3.8-2-6.4-2.7c-2.5-0.8-5.5-1.5-8.9-2.3c-3.6-0.8-6.7-1.7-9.3-2.6
			c-2.7-0.9-4.9-2-6.8-3.3c-1.8-1.3-3.2-2.9-4.1-4.8c-0.9-1.9-1.4-4.2-1.4-6.9c0-3.1,0.6-5.9,1.8-8.3c1.2-2.4,2.8-4.5,5-6.1
			c2.2-1.6,4.7-2.9,7.6-3.7c2.9-0.9,6.2-1.3,9.7-1.3c4.5,0,8.5,0.7,12.1,2c3.5,1.4,6.7,3.3,9.6,5.8L45,55.8z"/>
		<path class="st0" d="M74.4,111.4c-2.4,0-4.5-0.4-6.5-1.2c-2-0.8-3.7-1.9-5.2-3.3c-1.5-1.4-2.7-3-3.5-4.9c-0.8-1.9-1.2-3.9-1.2-6.1
			c0-2.2,0.5-4.2,1.5-6c1-1.8,2.4-3.4,4.3-4.8c1.8-1.3,4-2.4,6.6-3.1c2.5-0.7,5.3-1.1,8.4-1.1c2.5,0,5.1,0.2,7.7,0.7
			c2.6,0.4,4.9,1.1,7,1.9v-4.5c0-4.4-1.2-7.9-3.7-10.4c-2.5-2.6-5.9-3.9-10.3-3.9c-2.5,0-5.1,0.5-7.8,1.5c-2.7,1-5.4,2.5-8.1,4.4
			l-2.3-4.3c6.4-4.3,12.6-6.5,18.7-6.5c6.2,0,11.1,1.7,14.7,5.2c3.6,3.5,5.3,8.3,5.3,14.5V102c0,1.8,0.8,2.7,2.4,2.7v5.7
			c-1.1,0.2-1.9,0.3-2.5,0.3c-1.7,0-2.9-0.4-3.9-1.2c-0.9-0.8-1.4-2-1.5-3.4l-0.2-3.9c-2.3,3-5.2,5.3-8.6,6.9
			C82.2,110.6,78.4,111.4,74.4,111.4z M76,106.4c3.4,0,6.5-0.6,9.3-1.9c2.8-1.3,5-3,6.4-5.1c0.6-0.6,1-1.2,1.3-1.9
			c0.3-0.7,0.4-1.3,0.4-1.9v-8.1c-2.2-0.8-4.4-1.5-6.7-1.9c-2.3-0.4-4.7-0.7-7.1-0.7c-4.6,0-8.3,1-11.1,2.9
			c-2.9,1.9-4.3,4.4-4.3,7.5c0,1.5,0.3,3,0.9,4.3c0.6,1.3,1.4,2.5,2.5,3.5c1,1,2.3,1.8,3.8,2.3C72.7,106.1,74.3,106.4,76,106.4z"/>
		<path class="st0" d="M154.4,111.4h-6.5V83.6c0-5.9-0.9-10.2-2.6-12.9c-1.7-2.7-4.4-4-8.1-4c-1.9,0-3.8,0.3-5.7,1
			c-1.9,0.7-3.7,1.7-5.3,3c-1.6,1.3-3.1,2.8-4.3,4.5c-1.3,1.7-2.2,3.6-2.8,5.7v30.4h-6.5V61.7h5.9V73c2-3.6,4.9-6.5,8.7-8.8
			c3.8-2.2,7.9-3.3,12.3-3.3c2.7,0,5.1,0.5,7,1.5c1.9,1,3.4,2.4,4.6,4.3c1.1,1.8,2,4.1,2.5,6.8c0.5,2.7,0.8,5.6,0.8,8.9V111.4z"/>
	</g>
	<g>
		<path class="st0" d="M224.7,111.4V43.7h28c2.9,0,5.6,0.6,8.1,1.9c2.4,1.2,4.6,2.9,6.3,4.9c1.8,2,3.2,4.3,4.2,6.8
			c1,2.5,1.5,5.1,1.5,7.7c0,2.8-0.5,5.5-1.4,8.1c-1,2.6-2.3,4.8-4,6.8c-1.7,2-3.8,3.6-6.1,4.8c-2.4,1.2-5,1.8-8,1.8h-21.9v25H224.7z
			 M231.4,80.5H253c2,0,3.8-0.4,5.4-1.3c1.6-0.9,3-2,4.1-3.4c1.1-1.4,2-3.1,2.7-5c0.6-1.9,1-3.8,1-5.9c0-2.1-0.4-4.1-1.1-6
			c-0.7-1.9-1.7-3.5-3-4.9c-1.2-1.4-2.7-2.5-4.4-3.3c-1.7-0.8-3.4-1.2-5.3-1.2h-21.1V80.5z"/>
		<path class="st0" d="M303.3,111.4c-3.6,0-6.9-0.7-10-2c-3-1.4-5.6-3.2-7.9-5.6c-2.2-2.4-4-5.1-5.2-8.2c-1.2-3.1-1.9-6.4-1.9-10
			c0-3.5,0.6-6.8,1.9-9.9c1.2-3.1,3-5.8,5.1-8.1c2.2-2.3,4.8-4.2,7.9-5.5c3.1-1.4,6.4-2,9.9-2c3.6,0,6.9,0.7,10,2
			c3,1.4,5.6,3.2,7.8,5.6c2.2,2.4,3.8,5.1,5.1,8.1c1.2,3,1.8,6.3,1.8,9.7c0,0.5,0,1,0,1.5c0,0.5,0,0.9-0.1,1h-42.5
			c0.2,2.7,0.8,5.1,1.9,7.4c1,2.3,2.4,4.2,4,5.9c1.7,1.7,3.5,2.9,5.7,3.9c2.1,0.9,4.4,1.4,6.8,1.4c1.6,0,3.2-0.2,4.8-0.7
			c1.6-0.4,3.1-1,4.4-1.8c1.3-0.8,2.5-1.7,3.6-2.8c1.1-1.1,1.9-2.3,2.5-3.7l5.6,1.5c-0.8,1.8-1.8,3.5-3.2,5c-1.4,1.5-3,2.8-4.9,3.9
			c-1.8,1.1-3.9,2-6.1,2.6C308,111.1,305.7,111.4,303.3,111.4z M321.6,83c-0.2-2.7-0.8-5.1-1.9-7.3c-1-2.2-2.4-4.1-4-5.7
			c-1.6-1.6-3.5-2.8-5.6-3.7c-2.1-0.9-4.4-1.3-6.8-1.3c-2.4,0-4.7,0.4-6.9,1.3c-2.2,0.9-4.1,2.1-5.7,3.7c-1.6,1.6-2.9,3.5-3.9,5.7
			c-1,2.2-1.6,4.6-1.8,7.2H321.6z"/>
		<path class="st0" d="M358.2,111.4c-3.4,0-6.6-0.7-9.5-2.1c-2.9-1.4-5.4-3.3-7.5-5.7c-2.1-2.3-3.7-5.1-4.9-8.1
			c-1.2-3.1-1.8-6.3-1.8-9.7c0-3.5,0.6-6.8,1.7-10c1.1-3.1,2.7-5.9,4.7-8.2c2-2.3,4.4-4.2,7.1-5.6c2.8-1.4,5.8-2,9.1-2
			c4.2,0,7.9,1.1,11.1,3.3c3.2,2.2,5.8,4.8,7.6,8V40.8h6.5V102c0,1.8,0.8,2.7,2.3,2.7v5.7c-1,0.2-1.7,0.3-2.3,0.3
			c-1.5,0-2.9-0.5-4-1.5c-1.1-1-1.7-2.2-1.7-3.6v-4.9c-2,3.2-4.6,5.8-8,7.7C365.3,110.4,361.8,111.4,358.2,111.4z M359.6,105.6
			c1.6,0,3.3-0.3,5.1-1c1.8-0.6,3.5-1.5,5.1-2.6c1.6-1.1,2.9-2.4,4-3.9c1.1-1.5,1.8-3.1,2-4.8V78c-0.6-1.7-1.6-3.3-2.8-4.8
			c-1.2-1.5-2.6-2.8-4.1-4c-1.6-1.1-3.2-2-5-2.7c-1.8-0.6-3.5-1-5.2-1c-2.7,0-5.1,0.6-7.2,1.7c-2.2,1.1-4,2.7-5.6,4.5
			c-1.6,1.9-2.7,4-3.6,6.4c-0.8,2.4-1.2,4.9-1.2,7.4c0,2.7,0.5,5.2,1.4,7.6c1,2.4,2.3,4.5,3.9,6.3c1.7,1.8,3.6,3.3,5.9,4.3
			C354.5,105.1,357,105.6,359.6,105.6z"/>
		<path class="st0" d="M421.8,67.4c-4.4,0.1-8.2,1.3-11.4,3.6c-3.2,2.3-5.5,5.4-6.9,9.4v30.9H397V61.7h6.1v11.9
			c1.8-3.8,4.3-6.8,7.4-9c3.1-2.2,6.4-3.2,10-3.2c0.5,0,0.9,0,1.2,0.1V67.4z"/>
		<path class="st0" d="M449.2,111.4c-3.6,0-6.9-0.7-9.9-2c-3-1.4-5.6-3.2-7.8-5.6c-2.2-2.3-3.9-5.1-5.1-8.2
			c-1.2-3.1-1.8-6.4-1.8-9.8c0-3.5,0.6-6.8,1.9-9.9c1.2-3.1,3-5.8,5.1-8.2c2.2-2.3,4.8-4.2,7.8-5.6c3-1.4,6.3-2.1,9.8-2.1
			c3.6,0,6.8,0.7,9.9,2.1c3,1.4,5.6,3.3,7.8,5.6c2.2,2.4,3.9,5.1,5.1,8.2c1.2,3.1,1.9,6.4,1.9,9.9c0,3.4-0.6,6.7-1.8,9.8
			c-1.2,3.1-2.9,5.8-5.1,8.2c-2.2,2.4-4.8,4.2-7.8,5.6C456.1,110.7,452.8,111.4,449.2,111.4z M431.2,85.8c0,2.8,0.5,5.4,1.4,7.8
			s2.2,4.5,3.9,6.3c1.6,1.8,3.5,3.2,5.7,4.2c2.2,1,4.5,1.5,7,1.5c2.5,0,4.8-0.5,7-1.6c2.2-1,4.1-2.5,5.8-4.3c1.7-1.8,3-3.9,3.9-6.3
			c1-2.4,1.4-5,1.4-7.8c0-2.7-0.5-5.3-1.4-7.8c-1-2.4-2.3-4.6-3.9-6.4c-1.7-1.8-3.6-3.2-5.8-4.3c-2.2-1-4.5-1.6-7-1.6
			c-2.5,0-4.8,0.5-7,1.6c-2.2,1-4.1,2.5-5.7,4.3c-1.7,1.8-3,4-3.9,6.4C431.6,80.4,431.2,83,431.2,85.8z"/>
	</g>
	<g>
		<path class="st1" d="M-0.1,16.3c0-1.9,0.3-3.8,1-5.7C1.5,8.7,2.5,7,3.8,5.5C5.1,4,6.7,2.8,8.5,1.9s4-1.4,6.4-1.4
			c2.8,0,5.3,0.6,7.3,1.9c2,1.3,3.5,3,4.5,5l-2.5,1.5c-0.5-1-1.1-1.9-1.9-2.6C21.6,5.6,20.9,5,20,4.5c-0.8-0.4-1.7-0.8-2.6-1
			c-0.9-0.2-1.8-0.3-2.6-0.3c-1.9,0-3.6,0.4-5.1,1.2C8.2,5.2,7,6.2,6,7.5s-1.8,2.7-2.3,4.2C3.2,13.3,3,14.9,3,16.5
			c0,1.8,0.3,3.4,0.9,5.1c0.6,1.6,1.4,3,2.5,4.3c1.1,1.2,2.3,2.2,3.8,3s3,1.1,4.7,1.1c0.9,0,1.8-0.1,2.8-0.3
			c0.9-0.2,1.9-0.6,2.7-1.1c0.9-0.5,1.7-1.1,2.4-1.8c0.7-0.7,1.4-1.6,1.9-2.7l2.6,1.3c-0.5,1.2-1.2,2.2-2.2,3.2
			c-0.9,0.9-2,1.7-3.1,2.3c-1.1,0.6-2.3,1.1-3.6,1.4c-1.3,0.3-2.5,0.5-3.7,0.5c-2.2,0-4.2-0.5-6-1.4c-1.8-1-3.4-2.2-4.7-3.7
			C2.7,26,1.7,24.2,1,22.3S-0.1,18.3-0.1,16.3z"/>
		<path class="st1" d="M32.2-0.3h3v27.4c0,0.9,0.2,1.5,0.7,2c0.5,0.5,1.1,0.7,2,0.7c0.3,0,0.7,0,1.2-0.1c0.4-0.1,0.9-0.2,1.3-0.4
			l0.5,2.5c-0.6,0.2-1.3,0.4-2.1,0.6c-0.8,0.1-1.5,0.2-2.1,0.2c-1.4,0-2.5-0.4-3.3-1.2c-0.8-0.8-1.2-1.9-1.2-3.3V-0.3z"/>
		<path class="st1" d="M46,4.9l-2-0.8L46.7,0h3.2L46,4.9z M44.3,32.7V9.4h3v23.3H44.3z"/>
		<path class="st1" d="M73.6,32.7h-3v-13c0-2.8-0.4-4.8-1.2-6c-0.8-1.3-2.1-1.9-3.8-1.9c-0.9,0-1.8,0.2-2.7,0.5
			c-0.9,0.3-1.7,0.8-2.5,1.4c-0.8,0.6-1.4,1.3-2,2.1c-0.6,0.8-1,1.7-1.3,2.7v14.3h-3V9.4h2.8v5.3c1-1.7,2.3-3.1,4.1-4.1
			c1.8-1,3.7-1.6,5.8-1.6C68,9,69.1,9.2,70,9.7c0.9,0.5,1.6,1.2,2.2,2c0.5,0.9,0.9,1.9,1.2,3.2c0.2,1.3,0.4,2.6,0.4,4.2V32.7z"/>
		<path class="st1" d="M80.1,4.5V0h3v4.5H80.1z M80.1,32.7V9.4h3v23.3H80.1z"/>
		<path class="st1" d="M88.3,20.5c0-1.6,0.3-3.2,0.9-4.7c0.6-1.5,1.4-2.7,2.4-3.8c1-1.1,2.3-1.9,3.7-2.6c1.4-0.6,3-0.9,4.7-0.9
			c2.2,0,4.1,0.5,5.8,1.5c1.6,1,2.9,2.4,3.7,4.1l-3,0.9c-0.7-1.2-1.6-2.1-2.8-2.8c-1.2-0.7-2.5-1-3.9-1c-1.2,0-2.3,0.2-3.3,0.7
			c-1,0.5-1.9,1.1-2.7,1.9c-0.8,0.8-1.4,1.8-1.8,2.9c-0.4,1.1-0.6,2.4-0.6,3.7c0,1.3,0.2,2.6,0.7,3.7c0.4,1.2,1.1,2.2,1.8,3
			c0.8,0.9,1.7,1.5,2.7,2c1,0.5,2.1,0.7,3.3,0.7c0.7,0,1.5-0.1,2.2-0.3c0.7-0.2,1.4-0.5,2-0.9c0.6-0.4,1.2-0.8,1.6-1.3
			c0.4-0.5,0.8-1,0.9-1.5l3,0.9c-0.3,0.8-0.8,1.6-1.4,2.3c-0.6,0.7-1.4,1.3-2.2,1.8c-0.9,0.5-1.8,0.9-2.8,1.2
			c-1,0.3-2.1,0.4-3.2,0.4c-1.7,0-3.3-0.3-4.7-1c-1.4-0.6-2.7-1.5-3.7-2.6c-1-1.1-1.9-2.4-2.4-3.9C88.6,23.8,88.3,22.2,88.3,20.5z"
			/>
		<path class="st1" d="M120.4,32.7c-1.1,0-2.1-0.2-3.1-0.6c-0.9-0.4-1.8-0.9-2.5-1.5c-0.7-0.7-1.2-1.4-1.6-2.3s-0.6-1.8-0.6-2.8
			c0-1,0.2-2,0.7-2.8s1.1-1.6,2-2.2c0.9-0.6,1.9-1.1,3.1-1.5c1.2-0.3,2.5-0.5,3.9-0.5c1.2,0,2.4,0.1,3.6,0.3
			c1.2,0.2,2.3,0.5,3.3,0.9v-2.1c0-2.1-0.6-3.7-1.7-4.9c-1.2-1.2-2.8-1.8-4.8-1.8c-1.2,0-2.4,0.2-3.7,0.7c-1.3,0.5-2.5,1.2-3.8,2.1
			l-1.1-2c3-2,5.9-3,8.8-3c2.9,0,5.2,0.8,6.9,2.5c1.7,1.6,2.5,3.9,2.5,6.8v10.5c0,0.8,0.4,1.3,1.1,1.3v2.7c-0.5,0.1-0.9,0.1-1.2,0.1
			c-0.8,0-1.4-0.2-1.8-0.6c-0.4-0.4-0.7-0.9-0.7-1.6l-0.1-1.8c-1.1,1.4-2.4,2.5-4.1,3.2C124,32.3,122.3,32.7,120.4,32.7z
			 M121.1,30.4c1.6,0,3-0.3,4.4-0.9c1.3-0.6,2.3-1.4,3-2.4c0.3-0.3,0.5-0.6,0.6-0.9c0.1-0.3,0.2-0.6,0.2-0.9v-3.8
			c-1-0.4-2.1-0.7-3.2-0.9c-1.1-0.2-2.2-0.3-3.3-0.3c-2.2,0-3.9,0.4-5.2,1.3c-1.3,0.9-2,2.1-2,3.5c0,0.7,0.1,1.4,0.4,2
			c0.3,0.6,0.7,1.2,1.2,1.6c0.5,0.5,1.1,0.8,1.8,1.1C119.6,30.2,120.3,30.4,121.1,30.4z"/>
	</g>
	<g>
		<path class="st2" d="M211.2,177.1c-0.1,0-0.3,0-0.5,0c-1.9-0.2-3.4-1.6-3.7-3.5L189.5,74l-13.3,73.1c-0.3,1.7-1.6,3.1-3.3,3.4
			c-1.7,0.4-3.4-0.4-4.4-1.8l-14.3-21.4l-13.9,17.4c-0.8,1-2,1.6-3.3,1.6H62.3c-2.4,0-4.3-1.9-4.3-4.3c0-2.4,1.9-4.3,4.3-4.3h72.6
			l16.3-20.3c0.8-1.1,2.1-1.7,3.5-1.6c1.4,0.1,2.6,0.8,3.4,1.9l11.7,17.5l15.7-86.2c0.4-2,2.1-3.5,4.2-3.5h0c2.1,0,3.8,1.5,4.2,3.5
			l19.1,108.4l12.2-30.2c0.6-1.5,1.9-2.5,3.5-2.6c1.6-0.2,3.1,0.6,4,1.9l7.5,11.3h85.5c2.4,0,4.3,1.9,4.3,4.3c0,2.4-1.9,4.3-4.3,4.3
			h-87.8c-1.4,0-2.8-0.7-3.5-1.9l-4.3-6.5l-14.8,36.4C214.5,176.1,212.9,177.1,211.2,177.1z"/>
	</g>
</g>
</svg>
